<svg width="375" height="213" viewBox="0 0 375 213" fill="none" xmlns="http://www.w3.org/2000/svg">
<g clip-path="url(#clip0_1_2349)">
<path d="M163.335 124.07H107.298L106.704 106.84C106.678 106.093 106.815 105.35 107.104 104.661C107.393 103.972 107.828 103.353 108.379 102.849C108.93 102.344 109.584 101.964 110.296 101.736C111.007 101.508 111.76 101.437 112.502 101.528L145.112 105.521H145.116C149.95 105.534 154.582 107.463 157.997 110.885C161.412 114.307 163.332 118.943 163.335 123.778V124.07Z" fill="#D61355"/>
<path d="M138.359 62.9543H99.2759C98.7561 62.9542 98.2414 63.0565 97.7612 63.2553C97.2809 63.4542 96.8446 63.7457 96.477 64.1132C96.1095 64.4808 95.818 64.9171 95.6191 65.3974C95.4203 65.8776 95.318 66.3924 95.3181 66.9121V105.995C95.318 106.515 95.4203 107.03 95.6191 107.51C95.818 107.99 96.1095 108.427 96.477 108.794C96.8446 109.162 97.2809 109.453 97.7612 109.652C98.2414 109.851 98.7561 109.953 99.2759 109.953H138.359C138.879 109.953 139.394 109.851 139.874 109.652C140.354 109.453 140.791 109.162 141.158 108.794C141.526 108.427 141.817 107.99 142.016 107.51C142.215 107.03 142.317 106.515 142.317 105.995V66.9121C142.317 66.3924 142.215 65.8776 142.016 65.3974C141.817 64.9171 141.526 64.4808 141.158 64.1132C140.791 63.7457 140.354 63.4542 139.874 63.2553C139.394 63.0565 138.879 62.9542 138.359 62.9543Z" fill="#CCCCCC"/>
<path d="M129.557 92.1793L111.104 95.7728C110.01 95.9846 108.876 95.7537 107.951 95.1305C107.027 94.5074 106.387 93.543 106.173 92.4489L104.754 85.1649C104.542 84.0703 104.773 82.9364 105.396 82.0119C106.02 81.0874 106.984 80.4478 108.078 80.2335L126.531 76.64C127.626 76.4281 128.759 76.6591 129.684 77.2822C130.608 77.9054 131.248 78.8698 131.462 79.9639L132.881 87.2479C133.093 88.3425 132.862 89.4764 132.239 90.4009C131.616 91.3254 130.651 91.965 129.557 92.1793Z" fill="#3F3D56"/>
<path d="M125.865 83.5739L111.783 86.3163C111.525 86.3664 111.258 86.3122 111.041 86.1655C110.823 86.0189 110.672 85.7918 110.622 85.5342C110.572 85.2766 110.626 85.0096 110.773 84.792C110.92 84.5744 111.147 84.424 111.404 84.3738L125.487 81.6315C125.744 81.5813 126.011 81.6355 126.229 81.7822C126.447 81.9289 126.597 82.156 126.647 82.4136C126.697 82.6711 126.643 82.9381 126.497 83.1557C126.35 83.3733 126.123 83.5237 125.865 83.5739Z" fill="white"/>
<path d="M123.128 87.635L115.844 89.0535C115.586 89.1037 115.319 89.0494 115.102 88.9028C114.884 88.7561 114.734 88.529 114.684 88.2714C114.633 88.0138 114.688 87.7469 114.834 87.5293C114.981 87.3117 115.208 87.1612 115.466 87.1111L122.75 85.6926C122.877 85.6678 123.008 85.6683 123.136 85.6942C123.263 85.72 123.384 85.7707 123.492 85.8433C123.6 85.916 123.692 86.0091 123.764 86.1174C123.835 86.2257 123.885 86.3472 123.91 86.4747C123.935 86.6022 123.934 86.7334 123.908 86.8608C123.883 86.9881 123.832 87.1091 123.759 87.2168C123.687 87.3246 123.593 87.417 123.485 87.4887C123.377 87.5605 123.255 87.6102 123.128 87.635Z" fill="white"/>
<path d="M142.317 66.9121V72.1067H95.3181V66.9121C95.318 66.3924 95.4203 65.8776 95.6191 65.3974C95.818 64.9171 96.1095 64.4808 96.477 64.1132C96.8446 63.7457 97.2809 63.4542 97.7612 63.2553C98.2414 63.0565 98.7561 62.9542 99.2759 62.9543H138.359C138.879 62.9542 139.394 63.0565 139.874 63.2553C140.354 63.4542 140.79 63.7457 141.158 64.1132C141.526 64.4808 141.817 64.9171 142.016 65.3974C142.215 65.8776 142.317 66.3924 142.317 66.9121Z" fill="#B3B3B3"/>
<path d="M236.169 73.7335C235.898 72.8576 235.438 72.0519 234.821 71.3731C234.205 70.6943 233.447 70.1589 232.601 69.8046C231.756 69.4503 230.843 69.2857 229.926 69.3225C229.01 69.3593 228.113 69.5965 227.299 70.0175L173.529 50.726L171.161 64.1584L224.759 78.8975C225.557 80.2191 226.812 81.2021 228.286 81.6603C229.76 82.1184 231.351 82.0199 232.758 81.3834C234.164 80.7468 235.288 79.6165 235.917 78.2066C236.546 76.7966 236.635 75.2051 236.169 73.7335Z" fill="#FFB8B8"/>
<path opacity="0.2" d="M236.169 73.7335C235.898 72.8576 235.438 72.0519 234.821 71.3731C234.205 70.6943 233.447 70.1589 232.601 69.8046C231.756 69.4503 230.843 69.2857 229.926 69.3225C229.01 69.3593 228.113 69.5965 227.299 70.0175L173.529 50.726L171.161 64.1584L224.759 78.8975C225.557 80.2191 226.812 81.2021 228.286 81.6603C229.76 82.1184 231.351 82.0199 232.758 81.3834C234.164 80.7468 235.288 79.6165 235.917 78.2066C236.546 76.7966 236.635 75.2051 236.169 73.7335Z" fill="black"/>
<path d="M183.073 53.1736L177.996 66.4385C177.851 66.8159 177.627 67.1578 177.339 67.4408C177.05 67.7237 176.704 67.9412 176.324 68.0784C175.944 68.2156 175.538 68.2692 175.136 68.2357C174.733 68.2021 174.342 68.0821 173.99 67.884L161.65 60.9385C159.723 60.1883 158.173 58.7047 157.338 56.8131C156.504 54.9214 156.453 52.776 157.198 50.8473C157.943 48.9185 159.422 47.3638 161.311 46.5239C163.2 45.684 165.346 45.6275 167.277 46.3668L181.056 49.423C181.451 49.5106 181.822 49.6822 182.144 49.9262C182.466 50.1701 182.732 50.4806 182.924 50.8365C183.115 51.1925 183.227 51.5855 183.253 51.9888C183.279 52.3921 183.218 52.7962 183.073 53.1736Z" fill="#D61355"/>
<path d="M240.401 86.0159L221.135 94.7734L223.664 104.296C228.549 122.686 229.845 141.844 227.482 160.724L241.569 163.666L253.246 133.89L249.159 100.028L240.401 86.0159Z" fill="#D61355"/>
<path d="M278.205 130.095C265.546 130.095 255.23 139.298 254.729 150.822H301.68C301.18 139.298 290.864 130.095 278.205 130.095Z" fill="#3F3D56"/>
<path d="M268.351 132.081C267.692 80.0626 238.066 84.8482 238.066 84.8482C238.066 84.8482 238.62 101.04 238.886 101.543C257.765 137.262 226.608 179.137 186.948 171.434C186.201 171.288 185.482 171.141 184.793 170.992C179.768 169.942 175.331 167.018 172.385 162.814C169.439 158.61 168.205 153.442 168.934 148.361C172.841 116.988 153.41 117.543 153.41 117.543H124.997L110.241 104.263C109.72 103.794 109.092 103.46 108.413 103.29C107.733 103.12 107.022 103.119 106.342 103.287C105.661 103.456 105.033 103.788 104.511 104.255C103.989 104.723 103.589 105.311 103.347 105.968L101.448 111.121C101.448 111.121 73.4243 114.04 75.7596 141.48H84.4237C84.4028 142.26 84.434 143.04 84.5172 143.816L149.178 143.29C152.968 143.259 156.313 146.33 156.329 150.121C156.333 151.043 156.151 151.957 155.793 152.808C155.435 153.659 154.91 154.429 154.248 155.072C153.586 155.714 152.801 156.217 151.941 156.55C151.08 156.883 150.161 157.038 149.239 157.007L138.814 156.66C135.603 170.964 143.485 180.597 152.169 186.654C160.346 192.275 170.048 195.255 179.97 195.193H208.29C245.072 195.193 251.494 164.25 251.494 164.25C270.761 156.076 268.351 132.081 268.351 132.081Z" fill="#3F3D56"/>
<path d="M276.453 212.124C294.591 212.124 309.294 197.421 309.294 179.283C309.294 161.146 294.591 146.443 276.453 146.443C258.316 146.443 243.612 161.146 243.612 179.283C243.612 197.421 258.316 212.124 276.453 212.124Z" fill="#3F3D56"/>
<path d="M276.453 187.333C280.899 187.333 284.502 183.729 284.502 179.284C284.502 174.838 280.899 171.234 276.453 171.234C272.008 171.234 268.404 174.838 268.404 179.284C268.404 183.729 272.008 187.333 276.453 187.333Z" fill="white"/>
<path d="M110.644 212.124C131.522 212.124 148.447 195.199 148.447 174.321C148.447 153.443 131.522 136.518 110.644 136.518C89.7656 136.518 72.8404 153.443 72.8404 174.321C72.8404 195.199 89.7656 212.124 110.644 212.124Z" fill="#3F3D56"/>
<path d="M110.644 183.586C115.761 183.586 119.909 179.438 119.909 174.321C119.909 169.204 115.761 165.055 110.644 165.055C105.527 165.055 101.378 169.204 101.378 174.321C101.378 179.438 105.527 183.586 110.644 183.586Z" fill="white"/>
<path d="M221.19 97.361L214.257 78.5326C213.896 77.5513 213.732 76.5085 213.773 75.4636C213.815 74.4188 214.062 73.3924 214.501 72.4431C214.939 71.4937 215.56 70.6401 216.329 69.9308C217.097 69.2215 217.997 68.6705 218.979 68.3092L238.853 60.993C240.579 60.3572 242.414 60.0677 244.252 60.1411C246.091 60.2144 247.897 60.6492 249.567 61.4205C251.238 62.1918 252.74 63.2845 253.988 64.6364C255.236 65.9883 256.206 67.5727 256.842 69.2993C257.415 70.849 257.708 72.4884 257.706 74.1407C257.699 76.2388 257.224 78.3088 256.316 80.2004C255.409 82.092 254.091 83.7575 252.459 85.076C251.28 86.0217 249.955 86.7689 248.535 87.2882L221.19 97.361Z" fill="#3F3D56"/>
<path d="M257.414 74.1406C257.413 76.1959 256.95 78.2247 256.061 80.0778C255.172 81.9308 253.879 83.5609 252.276 84.8482C249.818 84.1997 247.531 83.0238 245.573 81.4019C243.615 79.7801 242.034 77.7513 240.939 75.4567C239.845 73.162 239.263 70.6565 239.235 68.1143C239.206 65.5721 239.732 63.0543 240.775 60.7358C242.778 60.3003 244.852 60.3189 246.847 60.7901C248.841 61.2613 250.705 62.1732 252.301 63.4589C253.896 64.7445 255.184 66.3713 256.069 68.2197C256.954 70.0681 257.414 72.0913 257.414 74.1406Z" fill="#D61355"/>
<path d="M80.7222 145.275C85.2364 145.275 88.8959 140.831 88.8959 135.35C88.8959 129.868 85.2364 125.425 80.7222 125.425C76.208 125.425 72.5485 129.868 72.5485 135.35C72.5485 140.831 76.208 145.275 80.7222 145.275Z" fill="#D61355"/>
<path d="M188.768 170.483H195.925L199.331 151.919L188.766 151.919L188.768 170.483Z" fill="#FFB8B8"/>
<path d="M186.942 168.146L201.038 168.145H201.038C202.218 168.145 203.386 168.378 204.476 168.829C205.566 169.281 206.556 169.942 207.39 170.776C208.225 171.61 208.886 172.601 209.338 173.691C209.789 174.781 210.022 175.949 210.022 177.128V177.42L186.942 177.421L186.942 168.146Z" fill="#2F2E41"/>
<path d="M197.076 162.863C196.992 162.863 196.909 162.859 196.825 162.851L186.919 162.13C186.518 162.093 186.132 161.964 185.789 161.754C185.446 161.544 185.156 161.258 184.941 160.918C184.726 160.577 184.592 160.192 184.549 159.792C184.507 159.392 184.557 158.988 184.695 158.61L197.952 128.826C198.047 128.56 198.085 128.278 198.066 127.997C198.046 127.716 197.968 127.442 197.837 127.192C197.707 126.939 197.524 126.717 197.302 126.54C197.079 126.363 196.822 126.235 196.546 126.165C190.313 124.535 174.318 120.196 160.473 115.12C154.541 112.944 150.806 109.801 149.369 105.777C147.476 100.472 150.277 95.6335 150.397 95.4305L150.491 95.2714L163.519 96.4556L177.643 97.6569L208.594 114.254C211.188 115.657 213.158 117.985 214.112 120.774C215.066 123.564 214.934 126.611 213.743 129.308L199.473 161.306C199.267 161.77 198.93 162.163 198.505 162.44C198.08 162.716 197.583 162.863 197.076 162.863Z" fill="#2F2E41"/>
<path d="M165.785 37.5296C173.704 37.5296 180.124 31.1096 180.124 23.1901C180.124 15.2705 173.704 8.85046 165.785 8.85046C157.865 8.85046 151.445 15.2705 151.445 23.1901C151.445 31.1096 157.865 37.5296 165.785 37.5296Z" fill="#FFB8B8"/>
<path d="M184.681 172.234H191.839L195.244 153.67L184.68 153.671L184.681 172.234Z" fill="#FFB8B8"/>
<path d="M182.855 169.897L196.951 169.897H196.952C198.131 169.897 199.299 170.129 200.389 170.581C201.479 171.032 202.469 171.694 203.304 172.528C204.138 173.362 204.799 174.352 205.251 175.442C205.702 176.532 205.935 177.7 205.935 178.88V179.172L182.855 179.173L182.855 169.897Z" fill="#2F2E41"/>
<path d="M192.989 164.615C192.906 164.615 192.822 164.611 192.738 164.603L182.832 163.882C182.432 163.845 182.045 163.716 181.702 163.506C181.359 163.295 181.069 163.009 180.854 162.669C180.639 162.329 180.505 161.944 180.462 161.544C180.42 161.144 180.47 160.739 180.608 160.362L193.865 130.577C193.96 130.312 193.998 130.03 193.979 129.748C193.959 129.467 193.881 129.193 193.75 128.943C193.62 128.691 193.437 128.469 193.215 128.291C192.992 128.114 192.735 127.986 192.459 127.916C186.226 126.287 170.232 121.948 156.386 116.871C150.455 114.696 146.719 111.553 145.282 107.528C143.389 102.223 146.19 97.3849 146.31 97.182L146.404 97.0229L159.432 98.2071L173.556 99.4084L204.507 116.006C207.101 117.408 209.071 119.736 210.025 122.526C210.979 125.315 210.847 128.362 209.656 131.059L195.386 163.058C195.18 163.521 194.844 163.915 194.418 164.191C193.993 164.468 193.496 164.615 192.989 164.615Z" fill="#2F2E41"/>
<path d="M170.207 45.6608L155.027 40.4062C155.027 40.4062 145.498 47.7275 150.076 65.8898C152.466 75.2622 151.77 85.1555 148.091 94.1009C147.648 95.2076 147.137 96.2861 146.562 97.3302C146.562 97.3302 163.493 117.764 179.256 102.585L173.126 73.101C173.126 73.101 182.759 53.5425 170.207 45.6608Z" fill="#D61355"/>
<path d="M167.565 38.0173C165.524 34.9625 163.913 30.7266 166.16 27.8201C168.378 24.9511 172.753 25.3737 176.15 24.1042C180.882 22.336 183.626 16.7775 182.77 11.7995C181.914 6.82152 177.918 2.69493 173.158 1.00646C168.397 -0.682008 163.029 -0.132879 158.367 1.8115C152.628 4.20504 147.706 8.8352 145.641 14.7004C143.577 20.5656 144.681 27.6079 148.963 32.116C153.554 36.9492 160.76 38.2372 167.425 38.1591" fill="#2F2E41"/>
<path d="M154.226 11.9592C151.654 14.0528 147.731 13.1229 144.97 11.2856C142.21 9.44822 139.97 6.83193 136.983 5.39137C131.717 2.85172 125.35 4.54 120.226 7.35312C115.101 10.1662 110.558 14.0526 105.144 16.2602C99.731 18.4678 92.8232 18.5769 88.7241 14.4085C87.7154 17.3311 87.6329 20.4937 88.488 23.4649C89.343 26.4361 91.094 29.0711 93.5019 31.0104C95.9098 32.9497 98.8574 34.0989 101.943 34.3011C105.028 34.5034 108.1 33.7488 110.741 32.1404C116.672 28.5274 119.948 20.952 126.601 18.9578C130.282 17.8543 134.235 18.7431 137.956 19.7057C141.677 20.6684 145.556 21.7085 149.311 20.889C153.066 20.0695 156.578 16.6953 156.101 12.8819L154.226 11.9592Z" fill="#2F2E41"/>
<path d="M235.455 73.1494C235.078 72.3137 234.522 71.5709 233.827 70.9734C233.131 70.3758 232.313 69.938 231.43 69.6907C230.547 69.4435 229.621 69.3929 228.716 69.5424C227.812 69.6919 226.951 70.038 226.194 70.5562L170.456 58.0463L169.763 71.6683L224.77 79.6818C225.725 80.8948 227.091 81.7155 228.611 81.9882C230.13 82.261 231.697 81.9669 233.014 81.1617C234.331 80.3565 235.307 79.0962 235.757 77.6194C236.207 76.1427 236.1 74.5522 235.455 73.1494Z" fill="#FFB8B8"/>
<path d="M180.229 59.2977L176.827 73.0877C176.73 73.48 176.549 73.847 176.298 74.1634C176.047 74.4798 175.73 74.7383 175.37 74.9214C175.009 75.1044 174.614 75.2076 174.21 75.224C173.806 75.2404 173.404 75.1696 173.03 75.0163L159.927 69.6465C157.921 69.1409 156.198 67.8603 155.135 66.0856C154.073 64.3109 153.757 62.1871 154.259 60.1803C154.76 58.1734 156.037 56.4474 157.809 55.381C159.582 54.3146 161.705 53.9948 163.713 54.4919L177.764 55.8245C178.167 55.8628 178.556 55.9873 178.906 56.1896C179.256 56.392 179.558 56.6673 179.792 56.9969C180.026 57.3265 180.186 57.7026 180.261 58.0997C180.336 58.4967 180.325 58.9053 180.229 59.2977Z" fill="#D61355"/>
<path d="M229.017 83.9724C231.274 83.9724 233.103 82.1427 233.103 79.8856C233.103 77.6284 231.274 75.7987 229.017 75.7987C226.759 75.7987 224.93 77.6284 224.93 79.8856C224.93 82.1427 226.759 83.9724 229.017 83.9724Z" fill="#D61355"/>
</g>
<defs>
<clipPath id="clip0_1_2349">
<rect width="484" height="213" fill="white" transform="translate(-74)"/>
</clipPath>
</defs>
</svg>
